<mxfile host="app.diagrams.net" agent="Mozilla/5.0 (Windows NT 10.0; Win64; x64) AppleWebKit/537.36 (KHTML, like Gecko) Chrome/128.0.0.0 Safari/537.36" version="24.7.10">
  <diagram name="第 1 页" id="et_9dHBUsUs_2zMKxzBQ">
    <mxGraphModel dx="1509" dy="785" grid="1" gridSize="10" guides="1" tooltips="1" connect="1" arrows="1" fold="1" page="1" pageScale="1" pageWidth="827" pageHeight="1169" math="0" shadow="0">
      <root>
        <mxCell id="0" />
        <mxCell id="1" parent="0" />
        <mxCell id="p3LiCyYIhPTqzkSWPBXI-1" value="&lt;font style=&quot;font-size: 28px;&quot; face=&quot;Times New Roman&quot;&gt;ChineseBERT&lt;/font&gt;" style="rounded=1;whiteSpace=wrap;html=1;fillColor=#8FA2C3;strokeColor=default;gradientColor=none;" parent="1" vertex="1">
          <mxGeometry y="560" width="800" height="130" as="geometry" />
        </mxCell>
        <mxCell id="b2E3thXhPP_fgpnL_Cfy-1" value="请帮我查询苹果公司现在的股价" style="text;whiteSpace=wrap;fontFamily=等线;fontSize=17;" vertex="1" parent="1">
          <mxGeometry x="220" y="770" width="490" height="40" as="geometry" />
        </mxCell>
        <mxCell id="b2E3thXhPP_fgpnL_Cfy-3" value="&lt;font style=&quot;font-size: 30px;&quot; face=&quot;Times New Roman&quot;&gt;Self-Attention&lt;/font&gt;" style="rounded=1;whiteSpace=wrap;html=1;fillColor=#E0D6C2;strokeColor=#9673a6;container=0;" vertex="1" parent="1">
          <mxGeometry x="850" y="560" width="820" height="130" as="geometry" />
        </mxCell>
      </root>
    </mxGraphModel>
  </diagram>
</mxfile>
